<?xml version="1.0" standalone="no"?>
<!DOCTYPE svg PUBLIC "-//W3C//DTD SVG 20010904//EN"
 "http://www.w3.org/TR/2001/REC-SVG-20010904/DTD/svg10.dtd">
<svg version="1.0" xmlns="http://www.w3.org/2000/svg"
 width="225.000000pt" height="225.000000pt" viewBox="0 0 225.000000 225.000000"
 preserveAspectRatio="xMidYMid meet">
<metadata>
Created by potrace 1.14, written by Peter Selinger 2001-2017
</metadata>
<g transform="translate(0.000000,225.000000) scale(0.100000,-0.100000)"
fill="#000000" stroke="none">
<path d="M1 1848 l0 -403 52 -44 c29 -24 88 -63 132 -87 81 -44 110 -48 145
-19 8 6 22 15 32 18 15 5 22 44 29 165 1 14 7 22 20 22 10 0 19 7 19 15 0 8 4
15 9 15 4 0 11 -60 14 -132 3 -81 12 -154 22 -188 37 -121 111 -235 245 -380
104 -112 98 -105 81 -95 -9 5 -12 4 -8 -2 4 -6 20 -13 37 -17 28 -5 30 -8 20
-27 -15 -28 9 -55 56 -64 19 -3 32 -10 28 -16 -4 -6 -11 -6 -19 1 -8 7 -18 9
-23 6 -5 -3 -23 8 -41 24 -17 17 -36 30 -41 30 -6 0 -8 5 -5 10 3 6 -1 10 -9
10 -10 0 -13 6 -9 17 5 12 3 14 -7 8 -9 -6 -46 26 -123 106 -114 119 -177 200
-222 284 -20 39 -25 43 -20 20 7 -33 -9 -24 -18 10 -3 11 -5 -10 -5 -46 1 -36
-2 -71 -6 -78 -4 -7 -5 -24 -2 -39 5 -26 5 -26 -6 -4 -6 12 -15 22 -20 22 -12
0 -1 -37 21 -71 9 -14 27 -43 40 -64 25 -39 34 -75 19 -75 -8 0 -12 15 -8 39
1 12 -1 13 -13 3 -41 -34 -135 156 -138 278 -1 30 -4 45 -6 33 -6 -31 -20 -29
-37 6 -9 16 -22 31 -30 34 -18 7 -31 -22 -16 -37 5 -5 10 -27 10 -48 0 -54
-26 -51 -40 5 -6 23 -17 54 -25 69 -8 14 -15 33 -15 41 0 9 -11 24 -25 35 -14
11 -25 26 -25 34 0 15 -51 78 -63 78 -4 0 -7 -304 -7 -675 l0 -675 1125 0
1125 0 0 344 c0 203 -4 347 -9 351 -5 3 -27 -1 -48 -9 -21 -8 -72 -24 -113
-36 -41 -12 -91 -26 -111 -32 -20 -6 -42 -7 -48 -4 -6 4 -11 2 -11 -4 0 -6 -5
-8 -11 -5 -5 4 -20 -1 -31 -12 l-21 -18 18 34 17 33 -44 -42 c-47 -47 -140
-111 -185 -127 -15 -6 -37 -15 -48 -19 -11 -4 -22 -8 -25 -8 -3 -1 -9 -4 -15
-8 -5 -3 -28 -3 -50 1 l-40 7 34 7 c41 8 207 83 237 106 11 9 19 22 16 30 -3
9 0 11 9 6 11 -6 12 -5 2 6 -19 20 -16 34 4 18 15 -12 16 -12 11 2 -4 9 -1 22
5 29 9 10 9 11 0 6 -8 -5 -13 -1 -13 9 0 9 -4 14 -9 11 -5 -4 -12 0 -14 6 -4
9 -6 8 -6 -2 -1 -11 -12 -15 -40 -15 l-39 0 37 36 c60 61 96 104 93 112 -1 4
5 7 13 7 8 0 15 7 15 15 0 8 4 15 10 15 5 0 6 8 3 17 -5 13 -2 15 11 10 10 -4
19 -7 22 -7 11 0 34 -64 34 -98 l0 -39 130 -5 c72 -3 147 -2 168 1 l37 6 3
355 3 355 -31 26 c-26 22 -29 28 -16 38 8 7 12 19 10 26 -3 8 4 20 15 27 21
13 21 19 21 350 l0 338 -1125 0 -1125 0 1 -402z m1439 253 c-36 -52 -52 -103
-52 -168 0 -46 -3 -63 -13 -63 -31 0 -34 -88 -4 -145 12 -22 31 -51 43 -65
l21 -24 -25 15 c-14 9 -46 47 -72 84 -47 67 -48 70 -48 144 0 91 29 164 82
204 27 21 67 43 86 46 2 1 -6 -12 -18 -28z m262 -113 c-43 -70 -92 -171 -98
-204 -3 -19 -11 -34 -17 -34 -13 0 -36 31 -37 51 0 25 156 236 168 225 2 -3
-5 -20 -16 -38z m-966 -191 c-3 -23 -9 -75 -12 -114 -4 -40 -10 -73 -14 -73
-4 0 -15 -16 -24 -35 -21 -44 -32 -44 -41 -2 -4 17 -12 35 -18 39 -7 4 -13 50
-15 107 -5 106 2 120 35 81 25 -28 33 -25 33 13 0 18 7 43 17 56 l16 24 14
-27 c9 -16 12 -42 9 -69z m294 -50 c10 -13 36 -29 58 -36 39 -13 113 -87 126
-126 3 -11 21 -36 38 -56 29 -32 39 -37 81 -37 28 -1 45 3 42 8 -4 6 1 7 11 3
13 -5 16 -3 11 10 -5 12 -1 17 12 17 11 0 22 -6 24 -12 3 -7 6 -3 6 10 1 35
21 26 21 -10 0 -25 3 -29 10 -18 8 12 10 11 10 -6 0 -12 7 -35 15 -50 15 -28
15 -28 15 -5 0 13 3 21 7 18 3 -4 11 -3 17 2 7 6 25 12 41 15 17 3 31 10 34
17 2 6 14 1 29 -13 20 -18 24 -19 19 -5 -6 15 -4 16 13 7 11 -6 20 -15 20 -20
0 -6 6 -10 13 -10 17 -1 57 -36 57 -50 0 -10 4 -9 15 0 26 21 37 -1 26 -49 -9
-44 -63 -117 -109 -149 -15 -11 -73 -43 -129 -73 -57 -29 -114 -63 -127 -76
-13 -12 -27 -19 -31 -15 -8 7 4 -39 12 -48 2 -2 8 1 12 9 11 18 24 16 32 -6 6
-15 8 -15 8 -2 1 9 7 22 15 28 11 10 16 8 21 -8 10 -32 39 -44 57 -23 27 30
39 60 28 67 -15 9 -2 25 21 25 22 0 23 -8 9 -46 -6 -15 -9 -29 -6 -31 2 -2 14
25 27 61 14 39 30 66 38 66 11 0 13 -17 8 -94 l-5 -95 30 -10 c52 -18 62 -14
91 43 15 29 39 58 53 64 28 14 29 8 8 -44 -39 -96 -65 -144 -75 -144 -6 0 -29
-13 -52 -29 -99 -67 -187 -95 -382 -120 -44 -6 -97 -15 -119 -21 -37 -11 -38
-13 -33 -49 2 -20 14 -57 26 -81 24 -51 24 -50 11 -50 -6 0 -23 -11 -37 -24
-43 -40 -72 -53 -85 -36 -7 12 -9 10 -5 -7 4 -17 1 -23 -13 -23 -16 0 -17 4
-10 31 11 37 2 57 -35 85 -14 10 -39 30 -55 43 l-29 23 81 40 82 39 -27 14
c-15 8 -34 21 -42 29 -25 24 -177 132 -214 151 -19 9 -69 52 -110 94 -79 79
-128 157 -154 248 -18 62 -42 286 -33 310 6 14 9 14 29 -4 12 -11 43 -31 68
-45 l45 -25 35 30 c19 16 51 41 72 55 34 22 40 24 48 11 4 -9 24 -39 43 -68
27 -39 32 -53 21 -57 -7 -3 -14 -13 -13 -22 0 -9 -3 -48 -6 -87 -3 -38 -3 -59
0 -45 12 62 15 68 38 72 28 6 57 -29 36 -42 -16 -10 -5 -96 13 -103 21 -8 59
12 64 33 9 33 28 17 25 -20 -2 -21 0 -30 7 -25 6 3 11 15 11 26 0 10 4 19 10
19 13 0 70 -113 70 -139 0 -17 3 -18 38 -5 20 7 48 13 62 14 14 0 32 5 40 10
10 7 1 8 -31 5 -52 -5 -57 0 -83 95 -8 30 -29 77 -46 103 -16 26 -30 50 -30
54 0 3 -11 16 -24 28 -38 35 -127 228 -133 289 -9 85 27 124 67 73z m528 -92
c2 -28 -1 -45 -7 -45 -7 0 -11 22 -11 52 0 61 12 56 18 -7z m43 -11 c11 -13
-1 -85 -16 -101 -10 -9 -12 5 -13 60 0 71 9 111 16 72 2 -11 8 -25 13 -31z
m-81 6 c0 -5 -7 -10 -15 -10 -8 0 -15 5 -15 10 0 6 7 10 15 10 8 0 15 -4 15
-10z m-1350 -40 c0 -5 -4 -10 -10 -10 -5 0 -10 5 -10 10 0 6 5 10 10 10 6 0
10 -4 10 -10z m297 -61 c63 -30 47 -33 -23 -4 -32 13 -50 24 -40 25 11 0 39
-10 63 -21z m1160 -11 c-3 -8 -6 -5 -6 6 -1 11 2 17 5 13 3 -3 4 -12 1 -19z
m523 -24 c0 -2 -7 -4 -15 -4 -8 0 -15 4 -15 10 0 5 7 7 15 4 8 -4 15 -8 15
-10z m-1930 -749 c11 -13 10 -14 -4 -9 -9 3 -16 10 -16 15 0 13 6 11 20 -6z
m1499 -2 c-46 -55 -124 -118 -189 -152 -96 -50 -235 -90 -253 -72 -7 7 -7 11
-2 10 6 -1 27 5 47 14 21 10 41 17 46 17 15 0 158 83 234 136 65 46 90 59 122
63 5 0 2 -6 -5 -16z m-1354 -64 c34 -15 35 -17 10 -12 -16 3 -48 14 -70 24
-34 16 -35 18 -10 12 17 -3 48 -14 70 -24z m541 -34 c10 -8 14 -15 7 -15 -6 0
-15 5 -19 11 -5 8 -9 8 -14 -1 -5 -8 -9 -7 -13 4 -8 20 13 21 39 1z m564 -9
c0 -23 -28 -26 -52 -6 l-23 19 38 1 c25 0 37 -4 37 -14z m739 -23 c-43 -57
-56 -69 -66 -66 -6 2 -13 -5 -16 -17 -3 -11 -10 -20 -16 -20 -6 0 -8 7 -5 15
5 13 -6 20 -28 16 -4 0 -5 6 -2 14 7 18 21 19 27 3 3 -8 12 -3 26 15 13 15 28
27 36 27 7 0 18 7 25 15 18 21 35 19 19 -2z m-1635 -36 c51 -37 126 -67 226
-92 55 -13 61 -28 29 -69 -17 -21 -18 -26 -5 -26 9 0 16 -4 16 -10 0 -5 19
-15 43 -21 36 -9 45 -17 65 -57 12 -26 32 -58 43 -72 l21 -24 55 29 c30 17 61
37 69 46 13 15 18 15 55 -4 38 -19 94 -25 106 -13 3 3 -1 16 -10 29 -22 34 -8
51 29 37 16 -7 45 -9 64 -7 19 3 43 2 53 -2 18 -6 18 -8 2 -21 -14 -12 -18
-12 -25 0 -7 11 -14 9 -35 -14 -14 -15 -60 -44 -103 -64 -76 -36 -79 -37 -202
-37 -119 0 -129 2 -210 34 -76 31 -94 44 -176 125 -70 70 -95 102 -108 141
-10 28 -24 65 -32 83 -16 38 -11 40 30 9z m-257 -33 c-3 -3 -12 -4 -19 -1 -8
3 -5 6 6 6 11 1 17 -2 13 -5z m1763 -44 c0 -5 -4 -10 -10 -10 -5 0 -10 5 -10
10 0 6 5 10 10 10 6 0 10 -4 10 -10z m-1040 -42 c0 -10 -4 -18 -9 -18 -10 0
-21 47 -13 55 8 7 22 -17 22 -37z m758 -6 c7 -5 10 -16 6 -25 -3 -9 -2 -17 3
-17 24 0 8 -30 -16 -31 -14 -1 -37 -5 -51 -10 -21 -7 -19 -8 10 -4 22 3 43 0
55 -9 12 -9 32 -12 50 -9 23 4 27 2 15 -6 -8 -6 -37 -11 -64 -11 -40 0 -47 -3
-42 -16 5 -12 2 -15 -10 -10 -12 5 -14 1 -8 -16 6 -20 5 -21 -10 -9 -9 7 -16
19 -16 26 0 6 -9 20 -20 30 -15 14 -17 21 -9 32 9 9 9 13 0 13 -6 0 -11 -4
-11 -10 0 -5 -7 -10 -16 -10 -26 0 -9 25 22 31 20 5 23 7 9 9 -16 1 -14 4 11
15 17 8 36 21 43 29 15 18 29 20 49 8z m-1231 -126 c3 -3 0 -12 -7 -21 -20
-24 -7 -104 24 -153 15 -24 26 -46 24 -48 -7 -7 -128 19 -128 28 0 4 -19 9
-42 9 l-43 2 40 6 c23 3 35 9 29 13 -7 4 -15 20 -18 34 -9 33 -18 42 -88 84
-32 19 -58 38 -58 41 0 21 246 26 267 5z m1023 -27 c146 -34 155 -39 58 -35
-65 3 -98 9 -132 27 -43 21 -67 50 -28 34 9 -4 55 -16 102 -26z m-150 -39 c0
-5 -7 -10 -15 -10 -8 0 -15 5 -15 10 0 6 7 10 15 10 8 0 15 -4 15 -10z"/>
<path d="M1397 1482 c-19 -20 -23 -37 -7 -27 10 6 33 45 27 45 -2 0 -11 -8
-20 -18z"/>
<path d="M1482 1430 c0 -14 2 -19 5 -12 2 6 2 18 0 25 -3 6 -5 1 -5 -13z"/>
<path d="M1284 1320 c24 -119 27 -143 22 -155 -3 -8 -1 -17 4 -20 5 -3 12 6
16 20 10 41 -2 111 -25 147 -19 30 -21 30 -17 8z"/>
<path d="M1447 1249 c-19 -11 -109 -130 -103 -136 9 -9 56 22 56 37 0 9 14 29
31 46 51 49 61 79 16 53z"/>
<path d="M1330 1096 c0 -2 7 -7 16 -10 8 -3 12 -2 9 4 -6 10 -25 14 -25 6z"/>
<path d="M1170 1043 c1 -11 31 -46 55 -63 11 -9 5 3 -14 28 -32 42 -41 49 -41
35z"/>
<path d="M1355 950 c-27 -12 -33 -19 -20 -19 11 0 31 8 45 19 30 24 27 24 -25
0z"/>
<path d="M386 1215 c8 -37 14 -45 14 -19 0 10 -5 26 -10 34 -8 11 -9 7 -4 -15z"/>
<path d="M332 1160 c0 -19 2 -27 5 -17 2 9 2 25 0 35 -3 9 -5 1 -5 -18z"/>
</g>
</svg>
